<?xml version="1.0" standalone="no"?>
<!DOCTYPE svg PUBLIC "-//W3C//DTD SVG 20010904//EN"
 "http://www.w3.org/TR/2001/REC-SVG-20010904/DTD/svg10.dtd">
<svg version="1.0" xmlns="http://www.w3.org/2000/svg"
 width="260.000000pt" height="260.000000pt" viewBox="0 0 260.000000 260.000000"
 preserveAspectRatio="xMidYMid meet">
<metadata>
Created by potrace 1.11, written by Peter Selinger 2001-2013
</metadata>
<g transform="translate(0.000000,260.000000) scale(0.100000,-0.100000)"
fill="#000000" stroke="none">
<path d="M1238 2565 c-2 -3 -32 -7 -66 -9 -34 -2 -65 -7 -71 -10 -5 -3 -26 -8
-47 -12 -116 -17 -254 -66 -364 -129 -140 -79 -310 -227 -397 -345 -65 -88
-158 -268 -198 -385 -4 -11 -17 -77 -29 -146 -23 -125 -25 -228 -7 -280 5 -16
5 -32 -1 -43 -20 -36 18 -239 69 -361 40 -98 52 -121 104 -207 124 -201 303
-365 504 -461 44 -21 88 -43 99 -49 18 -9 102 -36 135 -43 9 -2 43 -10 76 -18
67 -17 172 -29 255 -29 60 0 176 11 200 18 8 3 33 8 55 11 48 6 199 56 272 89
51 23 205 116 229 138 7 6 30 25 51 41 44 35 173 168 188 194 6 9 22 33 36 52
15 19 43 66 64 104 20 39 40 75 44 80 11 15 67 174 80 225 6 25 13 65 16 90 3
25 9 59 13 75 4 17 8 37 7 45 -1 8 3 21 8 28 6 8 5 12 -4 12 -9 0 -10 3 -4 8
12 9 15 92 3 92 -5 0 -4 8 1 19 6 10 7 22 3 26 -4 3 -7 10 -8 13 -6 71 -18
147 -29 187 -7 28 -19 70 -25 95 -7 25 -30 83 -51 128 -21 46 -39 86 -39 89 0
7 -91 145 -124 188 -40 50 -183 193 -216 214 -14 8 -41 28 -60 43 -41 32 -268
148 -291 148 -8 0 -19 4 -25 8 -8 8 -60 21 -142 37 -13 2 -33 7 -45 11 -12 4
-44 9 -72 11 -27 1 -82 5 -121 7 -39 3 -74 3 -76 1z"/>
</g>
</svg>
